# xmcd
#
# Track frame offsets: 
#        150
#        20187
#        43493
#        61932
#        72042
#        85090
#        117073
#        132567
#        150004
#        160778
#        188126
#        212978
#        242417
#
# Disc length: 3434 seconds
#
# Revision: 0
# Processed by: cddbd v1.5.2PL0 Copyright (c) Steve Scherf et al.
# Submitted via: ExactAudioCopy v0.99pb5
#
DISCID=ab0d680d
DTITLE=Ian Siegal - Swagger
DYEAR=2007
DGENRE=Blues
TTITLE0=Swagger
TTITLE1=Groundhog Blues
TTITLE2=Catch
TTITLE3=Horse Dream (Western)
TTITLE4=Stranger Than A Green Dog
TTITLE5=Mortal Coil Shuffle
TTITLE6=High Horse
TTITLE7=God Don't Like Ugly
TTITLE8=I Can't Believe You Wanna Leave
TTITLE9=Horse Dream (Swamp)
TTITLE10=I Don't Know What You Got (But It's Got Me)
TTITLE11=Curses
TTITLE12=Let My Love
EXTD=
EXTT0=
EXTT1=
EXTT2=
EXTT3=
EXTT4=
EXTT5=
EXTT6=
EXTT7=
EXTT8=
EXTT9=
EXTT10=
EXTT11=
EXTT12=
PLAYORDER=
